<svg xmlns="http://www.w3.org/2000/svg" viewBox="0 0 250 250">
  <g fill="#ccc2c0">
    <path d="M73.8 11C96.6.6 122.6-2 147 2c30.8 5.5 59.2 23 78 48 15.7 20.8 24.7 46.6 25 72.6v4c0 26-9 52-24.5 72.8-21.7 29.5-56.8 48.8-93.4 50.6h-14.3c-31-1.6-60.8-15.3-82.2-37.5C13.5 190 .3 159 0 127.5v-4C.2 104.2 4.8 85 13.8 67.8c12.8-25 34.4-45.4 60-56.8m8 13c-4.2 1.8-8.6 3.6-12.2 6.6-1.3 1-1.5 2.8-1.4 4.4.4 5.3 1.4 10.6 3.3 15.6 1.8 4.6 5.7 7.8 9.5 10.5 5.3 3.8 10.8 7.2 16 11-7.7-2.3-15-6.3-23-7.7-2.6-.5-5.4-.6-8-1.3-1.3-1-1.5-2.6-2-4-1.8-6.6-2.7-13.3-4.5-20-7.7 6.5-14.8 13.7-20.5 22-12 16.8-18.3 37.4-17.8 58 0 6.4.4 13 3 19 2.6 6.3 8 11.8 15 13.5 8.8 2.2 18 3.7 26.8 5.6 3.2 1 7.6 0 9.5 3.4 2.3 3.4 6 7.4 3.7 11.8-1.4 8.3-1.2 16.8-2 25.3-.3 9.3-2.6 19.2 1.3 28 2.8 5.3 9.4 5.2 14.5 5.3l1.5-11c.5-4-1-8-1.2-12 .6-4.2 2.3-8.2 3.7-12.2h2.5c3.4 10.3 5.4 21 8 31.4 3.7.4 7.3.3 11 0l3.7-30c2.4 0 5-.5 7.2.8 0 7.7-.2 15.4 0 23.2.4 0 1 .3 1.5.4 5-3.2 10.2-6.5 15-10.3 1-4.4-1.6-8.8-.3-13.2h5c1.5 4 3.2 8 3.8 12.3-.2 4.5-2 8.7-1.3 13 .4 3.5 1.5 6.8 2.4 10 4.7-1 9.3-2 14-2.8 1.5-7.3 3-14.7 1.7-22-1.8-13-1.3-26-1.3-39.2-.2-3.4 1-7.2 4.2-8.8 6.7-3.5 14.5-4 21.8-5.2 9.8-1.2 20.4-4 26.8-12.2 6.4-7.7 6.4-18.3 5.8-27.8.4-7-1.4-13.6-3.2-20.2-3.6-12.3-8.8-24.2-16.6-34.5-4-5.2-7.6-11.2-13-15C184 49.8 173 57 160.3 57.8c9.7-5.8 20-11 27.5-20-6-4.6-12-9-18.8-12-11.3-5.4-24-7-36.3-8-17.2-1-35-.3-51 6.3z"/>
    <path d="M62.5 89.8c8-2 16.3.3 23 4.7 9 6 16.3 15 19.6 25.3 1.2 4.4 2.3 9.6-.5 13.7-3.4 4.2-9.3 5-14.4 5.2-10 0-20-.2-30-.7-6.4-.4-13.5-1-18.4-5.6-3.4-3-4-8-3.7-12.4 1.2-13.7 11-26.5 24.5-30.2zM175.2 90.2c20.2-5.3 40 15 38 34.8-.3 4.3-3 8.3-7 10.3-5.5 3-12 3-18.2 3-11 0-22 .4-33 .3-5 0-9.2-4-9.8-8.8-1-7.4 2-14.7 5.8-20.8 5.6-8.7 14-16 24.2-18.8zM107.6 166c.4-12.6 3-26 11.2-36 1 1 1.4 2.5 1.3 4-.2 12.8 1.6 25.4 2.3 38.2l4 .2c.2-14 2.3-27.8 3.4-41.7 3.8 6.6 5 14.4 8.4 21.2 1.3 2.6 3.5 5 3.3 8-.2 6 0 12-.5 18.2 0 2.4-1 4.6-2.6 6.5-8.5-5-19.4-5.6-28.2-1-3-5.4-2.2-11.8-2.4-17.7z"/>
  </g>
  <path d="M82 24c16-6.4 33.8-7.3 51-6.3 12.3 1.2 25 2.7 36.3 8 6.7 3.2 12.8 7.5 18.6 12-7.5 9-18 14.3-27.6 20 12.7-.7 23.7-8 35.3-12.4 5.5 3.8 9 9.8 13 15 8 10.3 13 22.2 16.7 34.5 1.8 6.6 3.6 13.3 3.2 20.2.6 9.5.6 20-5.8 27.8-6.4 8.2-17 11-26.8 12.2-7.3 1.3-15 1.7-21.8 5.2-3.2 1.6-4.4 5.4-4.2 8.8 0 13-.5 26 1.3 39 1.3 7.5-.2 15-1.6 22.2-4.8.8-9.4 1.8-14 3-1-3.4-2-6.7-2.5-10-.6-4.5 1-8.7 1.3-13-.6-4.3-2.3-8.3-3.7-12.3-1.7 0-3.4 0-5-.2-1.4 4.4 1 8.8 0 13.3-4.6 4-9.7 7.2-15 10.4l-1.4-.4c-.2-7.8 0-15.5 0-23.3-2.2-1.2-4.8-.8-7.2-.7l-3.8 30c-3.6.3-7.2.4-11 0-2.5-10.4-4.5-21-8-31.3H97c-1.4 4-3 8-3.7 12.2.2 4 1.7 7.8 1.2 12L93 230.7c-5 0-11.8 0-14.5-5.2-4-9-1.6-18.8-1.3-28.2.8-8.4.6-17 2-25.2 2.3-4.4-1.4-8.4-3.7-11.8-2-3.4-6.3-2.5-9.5-3.3-9-1.8-18-3.3-27-5.5-6.7-1.7-12.2-7.2-15-13.6-2.4-6-2.7-12.6-2.8-19-.5-20.6 6-41.2 17.8-58 5.7-8.3 12.8-15.5 20.5-22 1.8 6.7 2.7 13.4 4.5 20 .5 1.4.7 3 2 4 2.6.7 5.4.8 8 1.3 8 1.4 15.3 5.4 23 7.8-5.2-3.8-10.7-7.2-16-11-3.8-2.6-7.7-5.8-9.5-10.4-2-5-3-10.3-3.3-15.6 0-1.6 0-3.3 1.4-4.4 3.6-3 8-4.8 12.3-6.5M62.4 90C49 93.5 39.2 106.3 38 120c-.5 4.4.2 9.3 3.6 12.4 5 4.6 12 5.2 18.4 5.6 10 .5 20 .6 30 .7 5.2 0 11-1 14.5-5.2 2.8-4 1.7-9.3.6-13.8-3.2-10.3-10.4-19.3-19.5-25.2-6.7-4.4-15-6.7-23-4.7m112.7.4c-10 2.7-18.6 10-24.2 18.8-4 6-6.7 13.4-5.8 20.8.7 4.7 5 8.8 9.7 8.8l33-.2c6.2 0 12.7 0 18.3-3 4-2 6.6-6 7-10.4 1.8-19.8-18-40-38-34.8M107.5 166c.2 6-.7 12.3 2.4 17.6 8.8-4.5 19.7-4 28.2 1 1.6-1.8 2.5-4 2.6-6.4.5-6 .3-12.2.5-18.2.2-3-2-5.4-3.2-8-3.3-7-4.5-14.7-8.3-21.3-1 14-3.2 27.7-3.4 41.7-1.4 0-2.7 0-4-.2-.7-12.8-2.5-25.4-2.3-38.2.2-1.5-.2-3-1.2-4-8.3 10-10.8 23.4-11.2 36z"/>
</svg>
