<svg xmlns="http://www.w3.org/2000/svg" viewBox="0 0 250 250">
  <g fill="#aae0fa">
    <path d="M122.6 0h3c30 0 59.7 11.5 82 31.4 21 18 35.3 43.4 40.3 70.5 1 6.7 1.6 13.7 2 20.7v3c-.4 13.7-2.3 27.4-7 40.3-9.5 27.4-29 51.3-54 66.2-19 11.6-41 17.5-63.3 17.8h-3c-13.6-.5-27.3-2.5-40.2-7.4-30.6-11-56.3-34.4-70.2-63.8C4 162.4.3 144 0 125.8v-3c.4-7 .8-14 2-21 5-27 19.5-52.4 40.3-70.5C64.3 11.7 93.3.5 122.6 0M91.8 82c-5.2 7-9 14.7-13.6 22.2-4.5 8.5-8.4 17.4-11.5 26.5-4.7 14.3-5.5 29.8-2 44.5 2.8 15 11 29.4 23.4 38.7 9.8 7.3 22 11 34 11.4 16.5 1 33.2-5 45.4-16 20.2-18 26.4-50.4 13.2-74.3-9.8-17-22.5-32-32.4-49.2-6.3-10-9-22-9-34-.6-9.3 2.7-18.2 4.5-27.3-19.5 17-37.4 36-52 57.4z"/>
    <path d="M158 124.6c5.7 3.4 8.4 9.5 11.5 15 3 6 4.4 12.7 4.5 19.4-.2 6-3 13.7-10 14.2-7.3 1.3-14.7-6.2-12.3-13.4 2.8-9 6-18.2 7-27.7.4-2.4 0-5-.6-7.4z"/>
  </g>
  <path d="M91.8 82c14.5-21.6 32.4-40.6 52-57.5-2 9-5.2 18-4.6 27.4 0 11.8 2.7 23.8 9 33.8 10 17 22.6 32.3 32.4 49.3 13.2 24 7 56.3-13.2 74.4-12.2 11-29 17-45.4 16-12-.3-24.2-4-34-11.5-12.3-9.4-20.5-23.7-23.3-38.8-3.5-14.7-2.7-30.2 2-44.4 3-9.2 7-18 11.5-26.6C82.7 96.7 86.6 89 91.8 82m66.3 42.6c.6 2.5 1 5 .8 7.5-1 9.6-4.3 18.7-7 27.8-2.5 7.2 5 14.7 12.2 13.4 7-.5 9.8-8.2 10-14.2 0-6.7-1.5-13.5-4.5-19.5-3-5.4-5.8-11.5-11.4-15z"/>
</svg>
