<svg xmlns="http://www.w3.org/2000/svg" viewBox="0 0 250 250">
  <g fill="#9bd3ae">
    <path d="M123.5 0h2.8c13.5.4 27 2.4 39.7 7 23.7 8.3 45 23.8 59.8 44 15.5 21 24 46.6 24.2 72.5v2.8c-.4 17.6-4 35.3-11.7 51.2-9 19.3-23 36.2-40.2 48.7-20.5 15.2-46 23.4-71.5 23.8h-3c-18.2-.4-36.5-4.2-53-12.4-29.3-14-52.4-40.3-63.3-71C2.4 153.8.4 140.2 0 126.5v-3l.5-8.4c2-31.5 17.2-61.7 40.7-82.8C63.5 12 93.2.2 123.5 0M96 18c-8.6 5.7-13.2 15.4-16.3 25-6-7-16.3-9.4-25.2-7.3-8 1.8-14.4 8-17 15.6C35.3 58 36 66 39.5 72c-1.7 1.5-3.7 2.6-5 4.4-1.8 3-1.4 6.4-1.6 9.7-3.8.8-7.6 2-10.5 4.5-6.3 5-8.3 13.8-7 21.4 1 4.8 4.4 8.6 7.5 12.3-7.8 5.7-12.3 16.7-8.3 26 3.4 7.8 9 15.4 17 18.8 7.5 2 15.3 0 22-3.2 5.7-2.7 9.5-8.2 11.3-14 11 2 23 5.7 30.3 14.8 7 8.8 7.3 20.8 6.4 31.5 0 5-5.3 6.2-8.8 7.8-4.8 2.5-10.2-.5-15 1.6-8 3-15.7 7.4-22.4 12.8 5 .7 10.2.8 15.2-.4 8.4-1.8 17-.3 25 2.5 2 3.4 1.4 8 3.4 11.4.4 1.4 2.5 3 3.4 1 3.4-4.4 5.6-10.6 11.3-12.7 2.2 6 3.4 13.5 9.7 17 2-4.7 3.8-9.4 7-13.3 1.5-2.3 4.6-1 6.3.4 5.5 4.4 10.6 10.2 18 11 .5-3.3 1.2-6.6 1.8-9.8 7-.3 13.3 3 20.2 2.6 3.4-.3 7.7-.3 9.6-3.6-3-1.5-6.3-3-9.3-4.7 5-2.7 10.6-1.2 16-1.8-.7-4.4-6-5-9.4-6-5.7-1.3-11.7 1-17-1.4-6.2-2-13.6-3-17.7-8.6-4.7-9.3-2-20-.7-29.6 1.5-6 2-12.6 5.7-17.7 7.6-4.5 16.4-6.6 25-9 8.4-2.8 17.5-2 26.3-1.2 2 3.4 4.3 7 8.2 8.2 3.8 1 8 2 11.7.5 7.3-2.8 12.7-10.8 11-18.6-.7-4.7-4-8.7-8-11.2 1.6-4.2 4-8.2 4.3-12.7.6-6-.3-12.2-3-17.8-3.4-7.6-10-13.2-17.2-17.4 1.2-2.4 3-5 2.3-7.8-.8-3.4-2.4-6.7-5-9-2.4-2.2-5.8-2.3-9-3-2.4-10.3-8-20.3-17-26-9.4-5.8-21.6-6-31.6-2-5-5-9.7-10.2-16-13.4-12.5-7-28.6-5-40.4 2.5z"/>
    <path d="M109.4 88c3.2.2 6.3.5 9.3 1.3v14c-2.7-2.8-6-5.5-8.3-8.7-1.4-2-.8-4.4-1-6.6zM146 88c4.8 2.3 9.5 4.5 14.4 6.4.7 9.6-7 16.6-14.4 21V88zM77.3 110c1.8-5.7 8.7-6.3 13.6-8 2.3 4 5.2 7.8 8.2 11.4-7.5 0-14.4-4-22-3.4zM146.7 143c6.5-8.3 16-13.3 24.2-19.4 2 3 4.5 5.8 7 8.6-11 2.2-21.5 5.6-31.3 10.8zM66.6 133.4c8-3.4 17.6-6 25.6-1.6 5 2.5 9.3 6.3 11.5 11.4 1.5 3 1.3 6.5 1.3 9.8-6.8-6-14-12-22-16-5-2.6-10.7-3.7-16.4-3.6z"/>
  </g>
  <path d="M96 18c11.8-7.5 28-9.4 40.4-2.4 6.3 3.2 11 8.5 16 13.5 10-4 22.2-3.8 31.5 2 9 5.7 14.6 15.7 17 26 3.2.7 6.6.8 9 3 2.6 2.3 4.2 5.6 5 9 .6 2.8-1.2 5.4-2.4 7.8 7 4.2 13.8 9.8 17.3 17.5 2.5 5.5 3.4 11.7 2.8 17.8-.4 4.6-2.7 8.6-4.2 12.8 4 2.5 7.2 6.5 8 11.3 1.6 8-3.8 16-11 18.7-4 1.5-8 .6-11.8-.5-4-1.2-6.2-4.8-8.2-8-8.8-.8-18-1.7-26.4 1-8.5 2.5-17.3 4.6-25 9.2-3.6 5-4 11.7-5.6 17.7-1.3 9.8-4 20.4.7 29.7 4 5.5 11.5 6.5 17.6 8.6 5.3 2.3 11.3 0 17 1.5 3.4.8 8.6 1.5 9.3 6-5.4.5-11-1-16 1.7 3 1.7 6.2 3.2 9.3 4.7-2 3.3-6.2 3.3-9.6 3.6-7 .5-13.3-3-20.2-2.6l-2 9.7c-7.2-.8-12.3-6.6-17.8-11-1.7-1.3-4.8-2.6-6.3-.3-3.2 4-5 8.7-7 13.2-6.3-3.5-7.5-11-9.8-17-5.8 2-8 8.3-11.4 12.8-1 2-3 .3-3.4-1-2-3.6-1.4-8-3.3-11.5-8-2.8-16.8-4.3-25.2-2.5-5 1.2-10 1-15.2.4 6.7-5.4 14.3-9.7 22.4-12.8 4.8-2 10.2 1 15-1.6 3.4-1.6 8.8-3 8.7-7.7 1-10.6.5-22.6-6.4-31.4-7.4-9-19.2-12.8-30.3-15-1.8 6-5.6 11.5-11.3 14.2-6.7 3.2-14.5 5.3-22 3.3-8-3.3-13.6-11-17-18.7-4-9.3.5-20.3 8.3-26-3-3.7-6.6-7.5-7.4-12.4-1.4-7.7.7-16.5 7-21.5C25.3 88 29 86.8 32.8 86c0-3.2-.3-6.7 1.5-9.6 1.3-1.8 3.3-3 5-4.3-3.4-6-4.2-14-2-20.7 2.6-7.5 9-13.8 17-15.6 9-2 19 .2 25.2 7.2 3-9.6 7.7-19.3 16.3-25m13.4 70c.2 2.2-.4 4.7 1 6.6 2.4 3.3 5.6 6 8.3 8.8v-14c-3-1-6-1.3-9.3-1.4m36.6 0v27.5c7.4-4.5 15-11.5 14.4-21-5-2-9.6-4.3-14.4-6.5m-68.7 22c7.5-.5 14.4 3.4 22 3.4-3-3.6-6-7.3-8.4-11.3-5 1.7-12 2.3-13.7 8m69.4 33c9.8-5.2 20.4-8.7 31.3-10.8-2.5-2.8-5-5.6-7-8.6-8.4 6-17.8 11-24.3 19.4m-80-9.6c5.6 0 11.2 1 16.3 3.6 8 4 15.2 10 22 16 0-3.3.2-6.7-1.3-9.8-2.2-5-6.6-9-11.5-11.4-8-4.4-17.7-1.8-25.6 1.6z"/>
</svg>
