<svg xmlns="http://www.w3.org/2000/svg" viewBox="0 0 250 250">
  <path fill="#faaa8f" d="M73.3 11.3c24-11.2 51.4-13.7 77.2-8.6 28.5 6 54.7 22.3 72.8 45 16.7 21 26.3 47.7 26.7 74.7v5.2c-.4 30.7-13 61-34 83.3-21.7 22.8-52 37.3-83.6 39H117c-31.4-1.8-62-16.3-83.4-39.6C12.8 188 .4 158.2 0 127.6v-4.4C.3 105 4.4 86.7 12.5 70.4 25 44.4 47 23 73.3 11.2m5.2 10c5.4 1 11 .6 16.4 1.5 12.2 1.8 25 3.2 36.3 8.8 3 1.3 6 4 4.8 7.5-.6 3.3-4 4.5-7 5-7.7 2.3-15.8 1.4-23.8 2 3.3 2 7 3.2 10.4 4.5 8 3 17.4 2.4 24.8-2 4.4-3 9-6 14.6-5.7 5.8-.2 11 3.3 14.3 8 5 7.3 8.3 16.5 6.2 25.3-.3 2.4-3 4.2-5 2.5C165 74 161.7 68 158 62.3c-2 9.8 3 19.3 9.3 26.5 7.3 8 17.3 14.2 28.3 15-1.4 9.2-3.5 18.4-8.4 26.4-1.5 2.6-3.6 4.7-6.4 6-2.2-4-4.3-8.5-3.7-13.3.5-6 4.3-11.2 4.2-17.3-6 3.6-9.6 10-11.8 16.4-1.3 7.3-2 14.6-1.4 22 .6 8.2-3.5 16-9 22-3.7 4-8.3 7.8-14 8-5 0-10.3-1.4-14-5-3-3-2.3-7.8 0-11 5-7.2 14-9.7 20-16 6.4-6.7 10.5-15.4 12.3-24.5.8-4.7 1.3-9.6 2-14.4-5 1.7-9 5.3-13.3 7.8-9.7 6-20.3 11.8-32 12-4.4.2-8.6-1.6-12.8-3-18-4.6-38 1-51 14.3-12 12-18 29.5-15.7 46.2 2 14 8.5 27.6 18.7 37.6 8.3 8 19 13.6 30.8 14 19 .3 38.2 0 57-3 13.2-2 26.5-5 38-12-11 0-22-.4-33-.8-3.2 0-6.2-2.2-7.4-5-.8-2.6 1.6-4.7 3.8-5.6 11.7-5.4 25-4.8 37.5-5.8 10.5-1 21-4.4 29.2-11.3 6.6-5.4 11.3-12.6 14.7-20.3 2-4.3 4-9 4-13.8-6.2 6.6-13.3 12.6-21.8 16-7.6 2.8-15.4 5.4-23.3 7.6 10.7-17 28.6-28.2 37.6-46.4 5.4-10.2 6-22.2 5-33.5-2.2-20.4-13.2-38.5-25.6-54.3 4.5 12 10.5 24 11 37.3 0 3.4-1 6.7-3.4 9-4.3-15-10.8-29.6-20.8-41.8C181.4 34 165.2 24 147.5 19.7c-22.6-5.4-46.6-4.4-69 1.6m-13 11.2c-11.8 7.5-21 19.4-24.2 33 6.3-4 11.7-9.5 19-12 1 4.4.4 9.5 3 13.4C67 61 69 53 75.7 49.6c4.5-1.3 10-.4 13.6-4.3 3-4.2 1.2-11-3.2-13.6-6.2-4.2-14.7-3.3-20.8.7m67.3 27.2c-3.6 1.6-5.3 5.4-8.2 7.8-4 1.6-7.4-1.8-10.5-3.7-4-2.5-9-6.2-13.8-3.3 10 3.6 13.6 14.6 21.6 20.8 6.7 3.8 15.2.8 21-3.5 5.8-4.2 4.4-13.6-1.2-17.3-2.7-1.6-6-1.8-9-.8z"/>
  <path d="M78.5 21.3c22.4-6 46.4-7 69-1.6 17.7 4.2 34 14.3 45.3 28.5 10 12.2 16.5 26.8 20.8 42 2.3-2.5 3.5-5.8 3.3-9.2-.5-13.2-6.5-25.2-11-37.3 12.4 15.8 23.4 34 25.6 54.2 1 11.2.4 23.2-5 33.4-9 18.2-27 29.5-37.7 46.4 7.8-2.2 15.6-4.8 23.2-7.7 8.5-3.2 15.6-9.2 21.8-15.8 0 5-2 9.5-4 13.8-3.5 7.7-8.2 15-14.8 20.3-8 7-18.7 10.3-29.3 11.3-12.7 1-26 .4-37.6 5.8-2.2 1-4.6 3-3.8 5.6 1.2 2.8 4.2 5 7.3 5 11 .4 22 .8 33 1-11.5 6.8-24.8 9.7-38 11.8-18.8 3-38 3.3-57 3-11.7-.4-22.5-6-30.8-14-10.2-10-16.8-23.5-18.7-37.6-2.2-16.7 3.6-34.2 15.6-46 13-13.4 33.3-19 51.2-14.3 4.2 1.2 8.4 3 12.8 2.7 11.7 0 22.3-5.8 32-12 4.4-2.4 8.3-6 13.2-7.6-.6 5-1 9.8-2 14.5-1.7 9-5.8 17.8-12.2 24.6-6 6.3-15 8.8-20 16-2.3 3.2-3 8 0 11 3.7 3.6 9 5 14 5 5.7-.2 10.3-4 14-8 5.5-6 9.6-13.8 9-22-.6-7.4 0-14.7 1.4-22 2.2-6.3 6-12.7 11.8-16.3 0 6-3.7 11.2-4 17.2-.7 4.7 1.4 9.2 3.6 13.3 2.8-1.4 5-3.5 6.4-6 5-8 7-17.3 8.4-26.4-11-1-21-7.2-28.3-15.2C161 81.6 156 72 158 62.3c3.8 5.6 7.3 11.6 12.4 16.2 2 1.7 4.8 0 5-2.4 2.2-8.7-1-18-6.2-25-3-5-8.4-8.4-14.2-8.2-5.5-.4-10.2 2.8-14.6 5.6-7.4 4.5-16.8 5-24.8 2-3.5-1.2-7-2.3-10.4-4.3 8-.6 16 .3 24-2 2.7-.5 6.2-1.7 7-5 1-3.4-2-6.2-4.8-7.5-11.4-5.6-24.2-7-36.5-8.8-5.5-1-11-.6-16.5-1.4z"/>
  <path d="M65.4 32.5c6-4 14.6-5 20.8-.7 4.4 2.6 6.3 9.4 3.2 13.6-3.5 4-9 3-13.7 4.3C69.2 53 67 61 63.3 67c-2.6-4-2-9-3-13.5-7.2 2.5-12.6 8-19 12C44.7 52 53.8 40 65.5 32.5zM132.7 59.7c3-1 6.3-.8 9 .8 5.5 3.7 7 13 1 17.3-5.7 4.3-14.2 7.3-21 3.5-8-6.2-11.5-17.2-21.5-20.8 4.7-3 9.8.8 13.8 3.3 3 2 6.6 5.3 10.5 3.7 3-2.4 4.6-6.2 8.2-7.8z"/>
</svg>
