<svg xmlns="http://www.w3.org/2000/svg" viewBox="0 0 250 250">
  <g fill="#fffcd6">
    <path d="M74 11C97.4 0 124.4-2.4 149.7 2.5c29.5 6 56.6 23 74.8 47 16 20.8 25 47 25.4 73.2v4c-.2 30.6-12.4 60.7-33 83-22 23.7-53 38.7-85.3 40.2h-13.6c-25.7-1.2-51-11-71-27C18.3 200 .3 164 0 127v-3.6C.2 104.2 4.8 85 13.8 67.8c12.8-25 34.4-45.4 60-56.8m56 1.7c-9.4 6.4-19 13-26 21.8-1.7 2-3.5 4.7-3 7.5.2 2.5 3 3.2 4.8 4.3 3.4 1.7 6.6 4.7 6.8 8.8 1.4 9.2-6.3 19.8-16 18.6-2-2.4-2.5-5.5-4-8C89.7 61.6 86 57 81 57c-4.5-.6-8 3-12 3.6-4 .3-6.7-3-8.5-6-5-8.6-7-18.3-9-27.8-2 13.4-4.7 26.8-6.8 40.2-.6 4-.4 8 .2 12 .4 2.7 2 5.7 4.8 6 4.4.2 9-3.5 13-1 4.8 3 9.6 7.3 10.3 13-.5 5-3.4 9.4-6 13.7-5.6-2-11.5-5.3-17.6-3.2-7 2.3-6 13.3-13.4 14.8-12 1.4-21.5-7.6-32-12 9.7 12 16.6 26.2 28 36.6 3.2 2.7 7.5 5.8 12 4 5-2 7.4-7.3 11-11 2-2.7 5.5-1.7 8.2-1 6 1.7 8.5 8.4 10.3 14-5.3 2.7-11.5 5.8-13.5 12-1.8 4.2 0 8.7.8 13 .4 3.6-2 6.8-5 8.8-8.3 6-18.6 8.3-28.4 11 13.5 2.2 27 4.4 40.7 5.6 5.5 0 12.2.2 15.8-4.6 4-5.8-2-13.2 2-19 2.2-3.3 6.6-3.7 10.2-3.8 4.4-.3 8.3 2 11.4 4.7-2.5 5.8-5.5 12.5-2.6 18.7 2.2 5.5 8.3 7.7 12.5 11.4 3.2 4 .8 9.6-.6 14-3 7.7-7 15-11.8 22 13.3-11 29.4-19 40-32.8 2-2.6 4.8-5.7 3-9-2.7-3.7-8.5-4-10.7-8.3-1.6-3.8-1.4-8.3.2-12 2.4-5.3 8-7.8 13.4-8.8 3 6 6 12.7 12 16 4.4 2.2 9 0 12.8-2 3.4-2 7.4 0 9.3 3 6 8.6 8.8 18.8 11.4 28.7 2-8.8 3.2-17.8 4.7-26.7 1.3-8.7 2.6-17.5 1-26.2-.4-1.6-1.2-3.8-3-3.7-4.5.4-9 3.3-13.3 1.2-4.4-2-9-5-11-9.7-2-5.5 3-10 5.4-14.5 6.3 1.3 12.6 3.4 19 2.2 2-.3 4-1.3 5-3 2.4-3.3 2-7.7 4.4-10.8 3-2.2 7-1.5 10.2-.8 10 2.7 18.5 8.4 27.4 13.4-11.3-13-17.7-30-31.3-40.8-4.3-3.6-11-3-15 .4-2.6 2.5-2.8 6.3-5 9-2.2 2.2-5.8 1.7-8.6 1-5.3-1.3-7-7.3-9.4-11.6 5.3-4.5 13-6.8 16-13.5 2-6.4-2.8-12.2-2.6-18.5.2-2.4 2.3-4 4.2-5 9.3-4.8 19.8-6 29.7-9-10.3-1.8-20.6-3-30.8-4.6-8.6-1-17.5-2.3-26 .2-2 .5-4 2-3.5 4.4.8 5.4 2.5 11.3-.2 16.5-1.4 3.2-5.5 3.8-8.6 3.5-4.7-.7-8.7-3.3-12.4-6 1.6-6 3.2-13 .8-19-1.8-5.4-6.3-8.7-10.3-12.3-3-2.8-3.4-7.4-2.3-11.2 2.5-8.6 8-15.8 13.2-23-5 2.8-9.6 6-14.3 9.2z"/>
    <path d="M114.6 74.8c10.8-2 22.3-.7 32 4.5 13.2 6.7 23 19.3 26.8 33.5 3.8 15 .3 31.8-9.7 43.7-14.4 18.2-42.3 23.5-62.5 12.4-12.8-7-22.5-19-26.4-33-3.5-12.5-1-26.4 5.8-37.4 7.5-12 20-21 34-23.8m4 5c-18.2 2.3-34.2 16.3-38.7 34-3.6 13.8 0 29 9.5 39.8 8.4 9.5 20.8 15.7 33.6 16 15.7.4 31.6-7.3 40-20.5 4.6-6.8 7-15 7-23 .6-13.2-5.4-26.2-15.2-34.8-9.7-8.7-23.2-13.4-36.3-11.5z"/>
  </g>
  <path d="M129.7 12.7c4.7-3 9.3-6.4 14.2-9.2-5.2 7.2-10.8 14.4-13.3 23-1 3.8-.7 8.4 2.4 11.2 4 3.6 8.6 7 10.4 12 2.4 6.4.8 13-.8 19.4 3.7 2.7 7.7 5.3 12.3 6 3 .3 7-.3 8.5-3.5 2.7-5.2 1-11 .2-16.5-.4-2.3 1.6-4 3.6-4.4 8.4-2.5 17.3-1.2 25.8-.2 10.4 1.5 20.7 2.8 31 4.6-10 3-20.5 4.2-29.8 9-2 1-4 2.6-4.2 5-.2 6.3 4.5 12 2.7 18.5-3.2 6.7-10.8 9-16 13.5 2.3 4.3 4 10.3 9.4 11.7 3 .5 6.5 1 8.8-1 2-2.8 2.3-6.6 4.8-9 4.2-3.6 10.8-4 15-.5 13.7 11 20.2 27.8 31.4 40.8-9-5-17.5-10.7-27.4-13.4-3.3-.7-7.3-1.4-10.2.8-2.3 3-2 7.5-4.3 10.7-1 2-3 3-5 3.2-6.4 1.3-12.7-1-19-2.2-2.4 4.4-7.4 9-5.4 14.5 2.2 4.6 6.7 7.6 11.2 9.7 4.2 2 8.7-.8 13-1 2-.2 2.8 2 3.2 3.6 1.6 8.7.3 17.5-1 26.2-1.4 9-2.6 18-4.6 26.7-2.6-10-5.5-20-11.3-28.7-1.8-3-5.8-5-9.2-3-3.8 2-8.4 4.2-12.7 2-6-3.3-9-10-12-16-5.4 1-11 3.4-13.5 8.6-1.6 3.8-1.8 8.3-.2 12 2.2 4.4 8 4.7 10.8 8.4 1.8 3.3-1 6.4-3 9-10.6 14-26.7 21.8-40 32.7 4.8-6.8 8.8-14.2 11.7-22 1.4-4.3 3.8-10 .6-14-4.3-3.6-10.3-5.8-12.5-11.3-3-6.2 0-13 2.6-18.7-3.2-2.6-7-5-11.4-4.7-3.6 0-8 .5-10.3 4-4 5.6 2 13-2 18.8-3.5 4.8-10.2 4.7-15.6 4.6-13.5-1.2-27-3.4-40.6-5.7 9.8-2.6 20-4.8 28.5-11 2.7-2 5.2-5 4.8-8.7-.8-4.3-2.5-8.8-.8-13 2-6.2 8.2-9.3 13.5-12-1.8-5.6-4.2-12.3-10.3-14-2.7-.7-6.3-1.7-8.3 1-3.6 3.7-6 9-11 11-4.5 1.8-8.8-1.3-12-4-11.4-10.5-18.3-24.7-28-36.6 10.5 4.3 20 13.3 32 12 7.5-1.6 6.3-12.6 13.4-15 6-2 12 1.4 17.7 3.3 2.6-4.3 5.5-8.7 6-13.7-.6-5.8-5.4-10-10-13-4.3-2.5-8.8 1.2-13.2 1-3-.3-4.4-3.3-5-6-.5-4-.7-8 0-12 2-13.4 4.6-26.8 6.8-40.2 1.8 9.5 4 19.2 9 27.7 1.7 3 4.4 6.4 8.3 6 4-.5 7.5-4 12-3.6 5.2 0 8.8 4.5 11.3 8.6 1.6 2.5 2.2 5.6 4 8 9.8 1.2 17.5-9.4 16-18.5 0-4-3.3-7-6.7-8.7-1.8-1-4.6-1.8-4.8-4.3-.5-2.8 1.3-5.4 3-7.5 7-8.8 16.6-15.4 26-21.8m-15.2 62c-14 3-26.5 11.8-34 24-7 11-9.3 24.8-5.8 37.3 4 14 13.6 26 26.4 33 20.2 11 48 5.7 62.5-12.5 10-12 13.5-28.7 9.7-43.7-3.8-14.2-13.6-26.8-26.7-33.5-9.8-5.2-21.3-6.6-32-4.5z"/>
  <path d="M118.5 79.7c13-2 26.6 2.8 36.3 11.5 9.8 8.6 15.8 21.6 15.3 34.8 0 8-2.4 16.2-7 23-8.4 13.3-24.3 21-40 20.5-12.7-.2-25-6.4-33.5-16-9.4-10.6-13-26-9.6-39.6 4.4-18 20.4-32 38.5-34.3z"/>
</svg>
