<svg xmlns="http://www.w3.org/2000/svg" width="55.5" height="98">
  <path fill="#0D1013" d="M55.3 49c0-5.4-1.6-10.8-5-15-1.6-1.8-3-3.8-4.6-5.5-3.7-3.7-9.4-4-14-6.3-.2-2.3-1-4.7-.5-7 .2-1 .4-1.7 0-2.4C30 10 31 7 30.8 4.2c-.2-1.5 0-3.3-1.5-4.2C29 3 28 6 27 9c-.5 2.2-.5 4.6-1.5 6.8.6 2-.6 4-2 5.6-3 1.5-6.4 2-9 4-2 1.7-3.8 3-6 4.3-1.4 2-3.2 3.8-3.8 6.3-2.8 3.3-3 7.8-4.7 11.7 0 5.8 1 12 4.8 16.7 2.7 2 4.6 5 7.2 7.3 2.5 1.5 5.2 2.7 8 4 1.6.5 3.3.7 5 1.2 1.4 7 2.4 14.3 5 21 1-2.8 1-5.7 1.7-8.5 1.2-4.2-1-8.5.2-12.5 1.8-1.8 5-.6 7.2-2 4-2.6 8.4-5 11.4-9 1-2.2 3.4-3.8 3.4-6.5 0-3.6 2-7 1.3-10.6zM25 71c-3-1-5.8-2.3-8.3-4-2.7-1.8-3.7-5-6.3-7-2.5-3-2-7-3-10.4.5-2.5 1-5 1.2-7.3 1.2-2 3-3.6 3.6-6 1.7-2.5 4.4-4.2 6.6-6.4 1.6-2 4-1 6-1.2 0 2-.2 4 .3 6 .3 1.2 1 2.4.7 3.7-.4 2.7.6 5.4 0 8-1.6 5.7 0 11.3 0 17 0 2.4-.2 5-.8 7.4zm22.4-10.7c-2 1.4-3.6 3-5.3 4.8-3 2-6 4.3-9.4 5.3.3-2.5.6-5-.2-7.6-2-5.6.5-11.4 1-17-.5-3.4 0-7-1.7-10-.2-2.4.8-4.7 1.5-7 2.3 1 4.5 2.3 6.5 4 2.3 1.7 6 2.8 6.5 6 .2 2.3 2.6 3.6 2.5 5.8 0 5.3.6 10.8-1.3 15.8z"/>
</svg>
