<?xml version="1.0" standalone="no"?>
<!DOCTYPE svg PUBLIC "-//W3C//DTD SVG 20010904//EN"
 "http://www.w3.org/TR/2001/REC-SVG-20010904/DTD/svg10.dtd">
<svg version="1.0" xmlns="http://www.w3.org/2000/svg"
 width="600.000000pt" height="600.000000pt" viewBox="0 0 600.000000 600.000000"
 preserveAspectRatio="xMidYMid meet">
<metadata>
Created by potrace 1.11, written by Peter Selinger 2001-2013
</metadata>
<g transform="translate(0.000000,600.000000) scale(0.100000,-0.100000)"
fill="#000000" stroke="none">
<path d="M2197 3994 c-1 -1 -28 -5 -61 -9 -165 -18 -309 -100 -404 -230 -11
-15 -53 -103 -54 -112 0 -4 -4 -16 -9 -25 -5 -9 -11 -34 -15 -55 -3 -21 -9
-55 -14 -76 -7 -35 -6 -39 17 -48 13 -5 45 -9 71 -10 26 0 68 -4 95 -8 26 -4
47 -5 48 -2 0 3 2 20 5 36 2 17 6 41 8 55 2 14 7 34 11 45 23 62 40 95 46 95
4 0 10 8 13 18 4 11 18 25 31 32 14 7 23 16 20 18 -8 8 27 29 86 53 38 15 80
22 141 24 94 3 145 -8 217 -46 50 -27 131 -113 131 -138 0 -10 3 -21 7 -25 4
-3 8 -12 9 -19 2 -7 6 -25 10 -42 11 -49 6 -145 -9 -145 -4 0 -6 -4 -3 -9 7
-11 -28 -92 -63 -146 -37 -57 -68 -95 -140 -170 -68 -71 -209 -197 -215 -193
-3 2 -13 -7 -21 -19 -9 -13 -21 -23 -26 -23 -6 0 -24 -15 -41 -32 -17 -18 -27
-26 -23 -18 4 8 -6 0 -24 -19 -17 -19 -31 -32 -31 -29 0 3 -25 -19 -55 -49
-30 -30 -55 -52 -55 -49 0 6 -51 -48 -127 -134 -76 -86 -162 -236 -166 -289
-1 -12 -4 -21 -7 -21 -3 0 -7 -16 -8 -37 -2 -20 -5 -39 -7 -43 -2 -3 0 -12 5
-19 12 -21 1257 -23 1265 -2 3 7 5 57 4 111 -1 92 -2 98 -22 102 -12 2 -221 3
-464 3 -295 0 -443 3 -443 10 0 29 126 159 271 280 67 56 109 92 164 139 64
55 297 285 330 326 36 44 85 118 85 128 0 5 7 15 15 22 9 7 13 15 10 18 -3 3
-1 10 4 16 21 25 43 145 43 229 0 89 -16 182 -33 193 -5 3 -9 12 -9 21 0 19
-87 143 -101 143 -5 0 -9 7 -9 15 0 8 -7 15 -15 15 -8 0 -15 4 -15 8 0 14
-131 86 -189 104 -30 9 -78 20 -105 23 -54 7 -175 13 -179 9z"/>
<path d="M3645 3988 c-33 -5 -70 -13 -82 -19 -11 -6 -26 -8 -32 -5 -6 4 -11 2
-11 -3 0 -6 -6 -11 -14 -11 -7 0 -44 -20 -82 -45 -37 -25 -64 -45 -60 -45 5 0
-3 -9 -18 -21 -35 -28 -108 -140 -140 -217 -29 -69 -61 -197 -71 -282 -4 -30
-10 -80 -13 -110 -13 -100 -5 -409 12 -525 39 -252 107 -409 224 -523 159
-154 435 -190 652 -85 77 37 186 150 230 238 19 39 35 72 35 75 0 3 3 10 6 15
8 12 27 72 35 106 15 63 25 117 30 149 2 19 6 51 9 71 7 49 8 462 1 524 -15
128 -27 190 -56 276 -24 70 -74 175 -96 200 -8 8 -14 19 -14 23 0 15 -86 98
-136 131 -111 74 -257 103 -409 83z m232 -225 c60 -30 131 -100 161 -159 37
-73 67 -192 80 -324 9 -88 8 -403 -2 -515 -5 -49 -9 -98 -9 -107 -1 -10 -5
-18 -9 -18 -4 0 -5 -6 -2 -14 8 -21 -24 -132 -56 -195 -35 -69 -105 -142 -168
-172 -65 -32 -187 -33 -253 -3 -47 22 -133 100 -158 144 -59 102 -86 226 -99
460 -10 159 -9 192 3 364 15 212 58 368 122 447 33 40 78 81 105 95 79 41 202
40 285 -3z"/>
<path d="M5138 3441 c-9 -20 -13 -66 -13 -154 l0 -124 -133 1 c-74 0 -136 -2
-139 -7 -2 -4 -10 -4 -16 -1 -7 4 -9 4 -5 -1 4 -4 1 -16 -6 -27 -13 -19 -14
-107 -1 -165 7 -31 33 -36 176 -36 l126 0 0 -134 c0 -169 2 -173 117 -174 113
-1 115 1 118 170 l3 136 132 1 c170 1 173 3 173 120 0 116 -5 119 -176 118
l-129 -1 -1 139 c-2 170 0 167 -125 168 -86 0 -87 0 -101 -29z"/>
<path d="M353 3152 c-15 -10 -18 -30 -20 -106 l-2 -94 32 -14 c26 -12 101 -14
411 -13 445 1 413 -8 410 116 -2 105 -2 109 -19 109 -8 0 -15 3 -15 8 0 4
-175 7 -390 7 -302 0 -394 -3 -407 -13z"/>
</g>
</svg>
